<?xml version="1.0" standalone="no"?>
<!DOCTYPE svg PUBLIC "-//W3C//DTD SVG 20010904//EN"
 "http://www.w3.org/TR/2001/REC-SVG-20010904/DTD/svg10.dtd">
<svg version="1.0" xmlns="http://www.w3.org/2000/svg"
 width="666.000000pt" height="666.000000pt" viewBox="0 0 666.000000 666.000000"
 preserveAspectRatio="xMidYMid meet">
<metadata>
Created by potrace 1.11, written by Peter Selinger 2001-2013
</metadata>
<g transform="translate(0.000000,666.000000) scale(0.100000,-0.100000)"
fill="#000000" stroke="none">
<path d="M1485 6173 c-3 -269 -9 -616 -13 -773 l-7 -285 -285 -5 -284 -5 -10
-33 c-6 -22 -5 -40 2 -57 l12 -25 279 0 c154 0 282 -4 285 -9 3 -4 3 -53 -1
-108 l-6 -100 -349 -6 c-242 -4 -354 -10 -364 -18 -9 -7 -14 -31 -14 -65 l0
-54 233 -1 c127 0 283 0 345 1 l112 1 0 -24 c0 -59 -27 -96 -75 -101 -5 -1
-13 -5 -16 -9 -3 -4 -17 -9 -31 -11 -13 -1 -35 -10 -48 -19 -14 -9 -29 -17
-35 -17 -5 1 1 7 15 15 14 8 22 14 19 15 -10 0 -94 -38 -103 -47 -4 -4 -11 -8
-14 -8 -4 -1 -32 -10 -62 -20 -48 -17 -83 -20 -264 -20 l-209 0 -9 -30 c-5
-16 -6 -45 -3 -62 l6 -33 121 0 c100 0 119 -2 109 -13 -6 -8 -8 -17 -4 -20 3
-4 1 -7 -6 -7 -16 0 -187 -173 -195 -197 -9 -27 -61 -46 -109 -40 -72 10 -77
1 -77 -120 0 -110 -17 -222 -35 -235 -5 -4 -7 -8 -2 -8 4 0 0 -16 -8 -37 -14
-32 -23 -68 -30 -113 -1 -8 -7 -35 -14 -59 -7 -23 -10 -49 -7 -57 3 -7 1 -16
-3 -19 -5 -2 -7 -76 -6 -162 2 -87 4 -170 4 -185 0 -16 5 -28 9 -28 5 0 9 -6
9 -12 1 -13 8 -58 19 -113 4 -16 10 -35 16 -41 5 -7 8 -16 6 -20 -1 -5 6 -26
15 -48 9 -21 17 -42 17 -47 0 -5 9 -24 19 -43 11 -19 17 -37 14 -40 -4 -3 -1
-6 6 -6 7 0 10 -4 6 -9 -3 -5 -1 -12 5 -16 5 -3 10 -14 10 -24 0 -9 8 -26 18
-37 9 -10 24 -32 32 -47 8 -16 24 -40 37 -53 12 -13 20 -24 18 -24 -3 0 4 -9
15 -20 11 -11 25 -20 31 -20 5 0 7 -4 4 -10 -3 -5 5 -21 19 -35 15 -14 26 -30
26 -35 0 -6 4 -10 10 -10 5 0 24 -16 42 -36 51 -57 82 -84 95 -84 7 0 13 -7
13 -15 0 -8 8 -15 18 -15 9 0 23 -9 30 -20 7 -11 17 -20 23 -20 6 0 25 -11 43
-25 18 -14 38 -25 44 -25 7 0 12 -4 12 -8 0 -5 16 -15 35 -22 20 -8 41 -20 47
-27 5 -7 14 -10 19 -7 5 3 9 1 9 -5 0 -5 15 -13 32 -16 18 -4 38 -10 43 -14
12 -9 116 -40 140 -42 6 0 17 -7 25 -14 13 -12 15 -78 14 -492 -1 -263 -5
-677 -9 -920 l-7 -443 256 0 256 0 0 408 c0 278 -5 460 -15 576 -19 215 -14
822 7 842 7 7 36 15 63 19 67 8 92 14 142 32 48 18 61 13 118 -44 85 -86 284
-227 470 -335 327 -190 723 -309 1148 -343 l77 -7 0 -374 c0 -229 -4 -374 -9
-374 -6 0 -23 17 -38 37 -15 21 -35 47 -45 58 -23 28 -87 107 -101 125 -7 8
-34 44 -62 79 -27 35 -60 75 -72 88 l-22 23 -569 0 -569 0 -25 -22 c-21 -20
-83 -102 -138 -184 -8 -13 -48 -69 -89 -126 -41 -57 -78 -116 -82 -133 -5 -16
-9 -101 -9 -187 l0 -158 1620 0 1620 0 2 751 3 751 106 68 c318 202 558 441
786 784 142 213 262 467 332 705 l31 104 0 663 0 663 -35 115 c-112 369 -335
752 -605 1039 -88 93 -210 205 -260 237 -13 8 -59 42 -104 74 -792 582 -1847
677 -2731 247 -401 -195 -766 -502 -1007 -847 l-53 -76 -7 369 c-3 202 -9 513
-13 691 l-7 322 -118 0 -118 0 -7 -487z m2801 -238 c507 -71 996 -342 1326
-734 324 -385 508 -885 508 -1380 0 -620 -282 -1229 -758 -1639 -70 -59 -195
-152 -206 -152 -3 0 -6 36 -6 80 0 44 -2 80 -5 80 -2 0 -42 -25 -89 -55 -193
-126 -481 -242 -707 -284 -84 -16 -286 -41 -331 -41 -5 0 -8 -20 -8 -45 0 -24
-6 -56 -12 -71 l-13 -27 -130 6 c-188 9 -320 33 -580 106 -85 24 -121 39 -245
101 -154 77 -430 259 -430 284 0 6 13 23 30 36 16 14 29 31 30 38 0 6 5 12 10
12 21 0 8 17 -49 67 l-58 52 -38 -37 c-62 -61 -70 -57 -180 70 -124 145 -219
288 -305 460 -66 134 -170 422 -156 435 3 4 34 9 69 11 34 2 66 8 70 12 5 4 4
25 -2 46 -24 82 -42 246 -48 427 l-6 187 -68 0 c-37 0 -70 3 -72 8 -6 9 11
148 22 187 5 17 12 42 15 58 6 26 8 27 77 27 l70 0 15 35 c8 20 16 59 19 89 2
29 9 65 14 79 6 15 7 28 3 30 -10 6 -86 21 -95 19 -18 -5 -17 30 2 72 l20 46
80 0 81 0 30 60 c16 33 30 64 30 70 0 6 -30 10 -75 10 -41 0 -75 4 -75 8 0 13
88 173 107 194 13 14 31 18 88 18 80 0 85 4 85 64 0 38 -15 56 -47 56 -13 0
-23 4 -23 9 0 15 143 173 236 259 238 223 506 379 829 483 147 47 273 71 500
93 74 7 342 -4 451 -19z m-2950 -1717 c-3 -24 -8 -68 -11 -98 -3 -30 -8 -74
-11 -97 l-5 -43 -245 0 c-134 0 -244 4 -244 9 0 5 20 30 45 55 25 26 45 45 45
41 0 -3 15 8 33 24 17 17 35 31 39 31 4 0 13 6 20 14 8 7 33 23 56 35 23 12
42 26 42 31 0 6 3 9 8 8 4 -1 18 3 32 9 14 6 32 13 40 16 8 3 48 6 89 6 l73 1
-6 -42z m-719 -743 c32 -14 69 -32 83 -39 25 -12 131 -46 205 -64 22 -6 59
-15 81 -21 23 -6 61 -11 85 -11 24 -1 55 -7 69 -15 14 -8 55 -15 95 -16 119
-2 116 0 146 -116 l25 -102 -4 -526 -5 -525 -22 -6 c-13 -3 -34 1 -47 9 -12 8
-40 18 -60 21 -21 4 -38 12 -38 17 0 6 -6 9 -12 7 -7 -3 -19 2 -27 9 -7 8 -26
17 -42 20 -16 3 -29 9 -29 13 0 4 -12 12 -27 19 -16 7 -39 20 -53 29 -14 9
-27 17 -30 17 -3 0 -23 17 -44 37 -21 20 -52 42 -67 49 -16 6 -29 16 -29 21 0
5 -8 7 -17 4 -10 -3 -25 -1 -33 4 -13 9 -13 10 0 11 8 1 22 0 30 -1 8 -1 -9
21 -38 49 -30 28 -50 51 -46 51 5 0 -8 17 -28 38 -42 43 -128 182 -128 206 0
9 -5 16 -12 16 -6 0 -9 3 -5 6 3 4 -5 28 -19 55 -13 27 -22 49 -19 49 3 0 -1
16 -9 35 -8 19 -17 51 -21 72 -3 20 -9 40 -13 43 -12 8 -16 54 -16 197 -1 73
-4 133 -8 133 -4 0 -3 12 3 27 5 14 12 47 15 72 3 25 8 49 10 53 3 5 8 21 10
35 4 22 19 42 31 43 1 0 28 -11 60 -25z m-152 -185 c3 -5 1 -10 -4 -10 -6 0
-11 5 -11 10 0 6 2 10 4 10 3 0 8 -4 11 -10z m225 -950 c12 -8 9 -10 -12 -10
-16 0 -28 5 -28 10 0 13 20 13 40 0z m1238 -237 c57 -68 63 -97 17 -89 -14 3
-25 1 -25 -3 0 -10 -52 -12 -67 -3 -11 7 -34 146 -33 202 1 25 1 24 28 -10 15
-18 51 -63 80 -97z m-938 83 c0 -2 -12 -11 -27 -20 l-28 -17 24 20 c23 21 31
25 31 17z"/>
<path d="M4556 5448 c-3 -13 -8 -36 -11 -53 -3 -16 -10 -51 -16 -77 -5 -27
-13 -69 -18 -95 -6 -27 -15 -75 -21 -107 -6 -33 -14 -64 -17 -70 -4 -6 -11
-33 -15 -61 -5 -27 -13 -72 -19 -100 -5 -27 -14 -72 -19 -100 -20 -114 -29
-155 -34 -164 -3 -4 -7 -24 -10 -43 -2 -19 -9 -52 -14 -73 -22 -86 -32 -136
-32 -157 0 -12 -4 -35 -9 -52 -5 -17 -15 -53 -21 -81 -12 -48 -18 -77 -40
-195 -6 -30 -15 -77 -21 -105 -5 -27 -14 -70 -18 -95 -11 -54 -36 -163 -49
-205 -6 -23 -15 -31 -38 -33 -55 -7 -54 -4 -54 -288 l0 -264 -24 -10 c-14 -5
-30 -18 -35 -29 -7 -13 -11 -174 -11 -477 l0 -457 108 6 c179 9 420 74 605
161 143 68 369 219 414 276 13 16 19 472 7 504 -3 9 -12 16 -20 16 -12 0 -14
45 -14 264 0 145 -3 271 -6 280 -4 10 -18 16 -39 16 -18 0 -39 8 -49 19 -16
17 -22 41 -46 176 -20 112 -59 297 -80 385 -5 19 -14 62 -20 95 -24 121 -32
161 -45 220 -12 55 -20 95 -47 230 -5 28 -14 64 -19 81 -5 17 -9 42 -9 57 0
14 -5 38 -11 54 -6 15 -15 53 -21 83 -5 30 -14 75 -19 100 -5 25 -14 70 -19
100 -33 170 -54 258 -65 269 -6 5 -20 12 -32 15 -18 6 -23 3 -27 -16z"/>
<path d="M2473 4738 c-5 -7 -22 -35 -37 -61 l-28 -48 44 3 c43 3 43 3 46 45 4
51 -9 82 -25 61z"/>
<path d="M2292 4342 c-24 -64 -27 -99 -12 -122 5 -8 10 -11 10 -6 0 5 9 1 20
-9 11 -10 20 -14 20 -9 0 5 4 4 8 -1 4 -6 30 -28 57 -50 28 -21 58 -48 68 -60
10 -11 15 -13 11 -5 -4 8 3 5 15 -7 12 -13 25 -23 29 -23 7 0 32 -48 32 -62 0
-4 -76 -8 -169 -8 l-170 0 -7 -47 c-16 -111 24 -511 57 -564 6 -11 14 -11 42
-1 18 7 42 12 52 12 21 0 121 34 181 61 22 11 44 19 48 19 14 0 146 91 156
108 5 9 16 26 25 36 14 18 15 18 34 -5 11 -13 20 -31 21 -40 0 -9 6 -32 14
-51 8 -19 17 -53 20 -76 3 -23 8 -47 11 -53 4 -5 8 -27 10 -49 2 -21 5 -43 8
-47 3 -5 2 -15 -3 -23 -5 -9 -4 -20 2 -28 9 -10 8 -16 -1 -22 -8 -4 -9 -10 -4
-13 8 -5 10 -40 3 -57 -1 -3 -3 -32 -4 -65 -1 -33 -5 -71 -9 -85 -4 -13 -9
-40 -12 -60 -3 -19 -12 -60 -21 -90 -9 -30 -18 -65 -21 -77 -3 -13 -9 -21 -13
-18 -4 3 -13 -15 -19 -40 -6 -25 -16 -45 -23 -45 -6 0 -8 -3 -5 -7 4 -3 -2
-20 -13 -38 l-20 -32 57 -52 c31 -29 60 -54 65 -57 7 -5 35 47 40 73 0 5 7 13
13 18 7 6 18 27 25 48 6 20 15 37 19 37 4 0 7 8 8 18 1 10 15 52 32 95 17 43
31 91 31 107 0 17 4 30 8 30 5 0 9 7 9 15 0 8 -4 12 -9 9 -4 -3 -8 0 -8 6 0 6
7 13 15 16 11 5 13 10 5 19 -7 9 -8 15 -1 19 6 4 8 13 5 21 -3 7 0 23 6 35 7
13 8 20 2 16 -5 -3 -13 2 -16 11 -4 9 -2 19 3 22 10 6 10 10 10 146 0 81 -4
160 -9 160 -2 0 -11 58 -13 93 -1 12 -4 22 -7 22 -3 0 -7 11 -8 26 -1 14 -7
34 -12 45 -6 11 -8 24 -5 29 3 6 3 10 -2 10 -7 0 -24 41 -36 85 -2 6 -11 24
-20 42 -9 18 -17 37 -17 43 0 6 -14 32 -32 57 -17 25 -25 43 -17 39 8 -4 6 -1
-3 7 -10 8 -15 17 -11 20 3 4 -1 7 -10 7 -10 0 -16 3 -15 8 3 12 -32 72 -42
72 -6 0 -10 5 -10 12 0 7 -12 23 -27 35 -14 13 -23 23 -20 23 9 0 -129 137
-149 148 -36 20 -24 39 26 46 54 7 66 23 54 73 -13 54 -17 55 -158 51 -72 -2
-143 1 -157 5 -25 8 -27 5 -47 -51z"/>
<path d="M0 3024 l0 -105 43 3 c41 3 42 4 51 49 5 25 6 67 2 93 -8 48 -28 66
-77 66 -18 0 -19 -8 -19 -106z"/>
<path d="M0 1365 l0 -1365 29 0 30 0 3 1343 c3 1430 5 1387 -43 1387 -19 0
-19 -34 -19 -1365z"/>
<path d="M6595 1336 c-33 -18 -109 -58 -168 -89 l-108 -57 -169 0 c-168 0
-170 0 -175 -22 -3 -13 -5 -161 -3 -331 l3 -307 78 -73 77 -73 0 -192 0 -192
265 0 265 0 0 685 c0 377 -1 685 -2 684 -2 0 -30 -15 -63 -33z"/>
</g>
</svg>
